solid Vreftop
   facet normal -1.000000e+00 -0.000000e+00 -0.000000e+00
      outer loop
         vertex -1.300000e+00 1.400000e+00 5.000000e-01
         vertex -1.300000e+00 1.400000e+00 -5.000000e-01
         vertex -1.300000e+00 1.300000e+00 5.000000e-01
      endloop
   endfacet
   facet normal -1.000000e+00 0.000000e+00 0.000000e+00
      outer loop
         vertex -1.300000e+00 1.300000e+00 5.000000e-01
         vertex -1.300000e+00 1.400000e+00 -5.000000e-01
         vertex -1.300000e+00 1.300000e+00 -5.000000e-01
      endloop
   endfacet
   facet normal 0.000000e+00 0.000000e+00 1.000000e+00
      outer loop
         vertex 3.200000e+00 1.400000e+00 5.000000e-01
         vertex -1.300000e+00 1.400000e+00 5.000000e-01
         vertex 3.200000e+00 1.300000e+00 5.000000e-01
      endloop
   endfacet
   facet normal 0.000000e+00 0.000000e+00 1.000000e+00
      outer loop
         vertex 3.200000e+00 1.300000e+00 5.000000e-01
         vertex -1.300000e+00 1.400000e+00 5.000000e-01
         vertex -1.300000e+00 1.300000e+00 5.000000e-01
      endloop
   endfacet
   facet normal 1.000000e+00 0.000000e+00 -0.000000e+00
      outer loop
         vertex 3.200000e+00 1.400000e+00 -5.000000e-01
         vertex 3.200000e+00 1.400000e+00 5.000000e-01
         vertex 3.200000e+00 1.300000e+00 -5.000000e-01
      endloop
   endfacet
   facet normal 1.000000e+00 0.000000e+00 0.000000e+00
      outer loop
         vertex 3.200000e+00 1.300000e+00 -5.000000e-01
         vertex 3.200000e+00 1.400000e+00 5.000000e-01
         vertex 3.200000e+00 1.300000e+00 5.000000e-01
      endloop
   endfacet
   facet normal 0.000000e+00 0.000000e+00 -1.000000e+00
      outer loop
         vertex -1.300000e+00 1.400000e+00 -5.000000e-01
         vertex 3.200000e+00 1.400000e+00 -5.000000e-01
         vertex -1.300000e+00 1.300000e+00 -5.000000e-01
      endloop
   endfacet
   facet normal 0.000000e+00 0.000000e+00 -1.000000e+00
      outer loop
         vertex -1.300000e+00 1.300000e+00 -5.000000e-01
         vertex 3.200000e+00 1.400000e+00 -5.000000e-01
         vertex 3.200000e+00 1.300000e+00 -5.000000e-01
      endloop
   endfacet
   facet normal 0.000000e+00 1.000000e+00 0.000000e+00
      outer loop
         vertex 3.200000e+00 1.400000e+00 5.000000e-01
         vertex 3.200000e+00 1.400000e+00 -5.000000e-01
         vertex -1.300000e+00 1.400000e+00 5.000000e-01
      endloop
   endfacet
   facet normal 0.000000e+00 1.000000e+00 0.000000e+00
      outer loop
         vertex -1.300000e+00 1.400000e+00 5.000000e-01
         vertex 3.200000e+00 1.400000e+00 -5.000000e-01
         vertex -1.300000e+00 1.400000e+00 -5.000000e-01
      endloop
   endfacet
   facet normal 0.000000e+00 -1.000000e+00 0.000000e+00
      outer loop
         vertex 3.200000e+00 1.300000e+00 -5.000000e-01
         vertex 3.200000e+00 1.300000e+00 5.000000e-01
         vertex -1.300000e+00 1.300000e+00 -5.000000e-01
      endloop
   endfacet
   facet normal 0.000000e+00 -1.000000e+00 0.000000e+00
      outer loop
         vertex -1.300000e+00 1.300000e+00 -5.000000e-01
         vertex 3.200000e+00 1.300000e+00 5.000000e-01
         vertex -1.300000e+00 1.300000e+00 5.000000e-01
      endloop
   endfacet
endsolid